<?xml version="1.0" standalone="no"?>
<!DOCTYPE svg PUBLIC "-//W3C//DTD SVG 20010904//EN"
 "http://www.w3.org/TR/2001/REC-SVG-20010904/DTD/svg10.dtd">
<svg version="1.0" xmlns="http://www.w3.org/2000/svg"
 width="225.000000pt" height="225.000000pt" viewBox="0 0 225.000000 225.000000"
 preserveAspectRatio="xMidYMid meet">
<metadata>
Created by potrace 1.11, written by Peter Selinger 2001-2013
</metadata>
<g transform="translate(0.000000,225.000000) scale(0.100000,-0.100000)"
fill="#000000" stroke="none">
<path d="M1175 1543 c-93 -8 -247 -36 -350 -65 -203 -56 -456 -163 -527 -223
-16 -14 -34 -25 -38 -25 -15 0 -128 -105 -171 -158 -52 -66 -71 -115 -70 -178
1 -81 31 -142 99 -199 l31 -26 -20 47 c-58 131 8 300 178 452 65 58 68 60 71
37 2 -14 8 -25 13 -25 5 0 9 -7 9 -16 0 -11 6 -15 20 -11 11 3 20 4 20 3 0 -1
-20 -62 -45 -136 -25 -74 -45 -135 -45 -137 0 -2 7 -3 15 -3 9 0 12 -6 9 -15
-5 -12 3 -15 39 -15 l45 0 52 154 52 154 34 -5 c31 -5 35 -3 48 29 26 62 30
88 12 88 -10 0 -13 6 -9 16 5 14 -7 15 -115 11 -69 -2 -119 -1 -116 4 3 5 25
9 48 9 27 0 60 9 87 24 65 36 212 94 309 121 159 45 270 58 429 52 156 -6 249
-25 339 -71 47 -24 132 -99 132 -117 0 -5 18 -9 39 -9 22 0 43 -4 46 -10 4 -6
-12 -8 -39 -6 -26 2 -50 -2 -55 -8 -5 -6 -17 -37 -27 -68 -15 -48 -21 -58 -40
-58 -22 0 -22 1 -10 33 26 63 28 77 12 77 -9 0 -15 6 -14 13 2 8 -11 12 -41
12 l-44 0 -64 -190 c-34 -104 -66 -198 -69 -207 -3 -12 0 -18 10 -18 10 0 13
-6 10 -15 -5 -12 3 -15 39 -15 l45 0 27 80 c22 65 30 80 47 80 12 0 18 -5 15
-12 -2 -7 -13 -39 -23 -71 -17 -54 -24 -63 -89 -109 -158 -112 -460 -239 -685
-287 l-95 -21 180 5 c407 10 798 116 1052 285 255 170 318 370 170 540 -60 69
-229 147 -387 179 -133 26 -428 38 -595 24z m952 -248 c2 -6 -38 -9 -112 -7
-72 2 -113 7 -109 13 8 13 216 7 221 -6z m-236 -42 c-12 -20 -14 -14 -5 12 4
9 9 14 11 11 3 -2 0 -13 -6 -23z m-14 -55 c-3 -7 -5 -2 -5 12 0 14 2 19 5 13
2 -7 2 -19 0 -25z m120 -30 c-3 -8 -6 -5 -6 6 -1 11 2 17 5 13 3 -3 4 -12 1
-19z m-96 -95 c-5 -10 -24 -31 -42 -48 -29 -27 -29 -25 7 17 42 51 50 58 35
31z m99 -6 c0 -2 -12 -14 -27 -28 l-28 -24 24 28 c23 25 31 32 31 24z m-200
-107 c-12 -16 -24 -30 -26 -30 -3 0 4 14 16 30 12 17 24 30 26 30 3 0 -4 -13
-16 -30z"/>
<path d="M714 1292 c-10 -6 -144 -382 -144 -403 0 -5 7 -9 15 -9 9 0 12 -6 9
-15 -5 -13 10 -15 103 -15 l109 0 17 48 c21 57 21 66 3 59 -8 -3 -13 1 -12 11
1 13 -9 18 -42 20 -61 4 -49 26 18 32 50 5 54 7 66 40 17 48 17 63 0 57 -10
-4 -13 -1 -9 9 4 11 -4 14 -32 14 -25 0 -35 4 -32 13 2 8 22 11 64 9 l60 -3
17 41 c9 22 16 47 16 55 0 18 -16 20 -24 3 -3 -7 -3 -1 0 15 l6 27 -98 0 c-55
0 -104 -4 -110 -8z m84 -249 c-16 -2 -40 -2 -55 0 -16 2 -3 4 27 4 30 0 43 -2
28 -4z"/>
<path d="M1003 1292 c-20 -13 -150 -405 -135 -410 6 -2 12 -10 12 -18 0 -12
10 -14 41 -12 41 3 42 4 63 63 l21 60 52 5 c42 4 59 12 87 39 36 35 73 108 76
151 4 46 0 71 -10 65 -5 -3 -10 1 -10 10 0 28 -60 55 -125 55 -33 0 -66 -4
-72 -8z m98 -144 c-9 -25 -41 -46 -41 -29 0 21 13 41 26 41 8 0 14 5 14 12 0
6 2 9 5 6 3 -3 1 -16 -4 -30z"/>
<path d="M1276 1253 c-23 -67 -22 -68 34 -66 27 0 50 -3 50 -7 0 -4 -18 -6
-40 -3 -25 4 -40 2 -40 -5 0 -6 13 -12 29 -14 29 -3 29 -3 -46 -83 -72 -77
-112 -141 -113 -177 0 -10 5 -18 10 -18 6 0 10 -7 10 -15 0 -13 17 -15 117
-13 l116 3 18 53 c15 44 15 52 3 52 -8 0 -13 6 -11 13 1 7 -12 13 -36 15 l-38
3 84 92 c46 51 89 106 94 122 6 17 14 38 18 48 5 12 2 17 -10 17 -9 0 -14 4
-11 9 10 15 -23 21 -124 21 l-98 0 -16 -47z m84 -197 c0 -2 -8 -10 -17 -17
-16 -13 -17 -12 -4 4 13 16 21 21 21 13z"/>
</g>
</svg>
